{"asset":{"generator":"3D Builder","version":"2.0"},"scene":0,"scenes":[{"nodes":[0,1,2,3,4,5,6,7,8]}],"nodes":[{"mesh":0,"matrix":[0.22237333655357361,0,0,0,0,-2.6508967465588285E-8,-0.22237330675125122,0,0,0.22237330675125122,-2.6508967465588285E-8,0,0.032129224389791489,-2.6145027476331961E-8,-0.22567035257816315,1]},{"mesh":1,"matrix":[0.30047488212585449,0,0,0,0,-3.5819397226077854E-8,-0.3004748523235321,0,0,0.3004748523235321,-3.5819397226077854E-8,0,-0.30267855525016785,-3.2409655403853321E-8,-0.27187186479568481,1]},{"mesh":2,"matrix":[0.45994654297828674,0,0,0,0,-5.4829900619779437E-8,-0.45994648337364197,0,0,0.45994648337364197,-5.4829900619779437E-8,0,0.13471871614456177,4.4063803272820223E-8,0.382333904504776,1]},{"mesh":3,"matrix":[0.40500980615615845,0,0,0,0,-4.8280931252975279E-8,-0.40500974655151367,0,0,0.40500974655151367,-4.8280931252975279E-8,0,-0.24342609941959381,1.6749016396033767E-8,0.14050091803073883,1]},{"mesh":4,"matrix":[0.71977794170379639,0,0,0,0,-8.580421706483321E-8,-0.71977788209915161,0,0,0.71977788209915161,-8.580421706483321E-8,0,0.41779953241348267,3.199538767262311E-8,0.24299673736095428,1]},{"mesh":5,"matrix":[0.6427614688873291,0,0,0,0,-7.6623138056675089E-8,-0.64276140928268433,0,0,0.64276140928268433,-7.6623138056675089E-8,0,0.31829690933227539,-5.4817448358335241E-8,-0.4598420262336731,1]},{"mesh":6,"matrix":[0.71163773536682129,0,0,0,0,-8.4833828850605641E-8,-0.71163767576217651,0,0,0.71163767576217651,-8.4833828850605641E-8,0,-0.49259385466575623,-3.0120663296884231E-8,-0.12567043304443359,1]},{"mesh":7,"matrix":[0.68552738428115845,0,0,0,0,-8.17212324477623E-8,-0.68552732467651367,0,0,0.68552732467651367,-8.17212324477623E-8,0,-0.18916025757789612,6.5497879120357538E-8,0.54943597316741943,1]},{"mesh":8,"matrix":[1.2060753107070923,0,0,0,0,-1.4377538093413023E-7,-1.2060751914978027,0,0,1.2060751914978027,-1.4377538093413023E-7,0,-2.1139936023928385E-8,-2.10623699708199E-15,-1.7668394747261118E-8,1]}],"meshes":[{"primitives":[{"attributes":{"POSITION":0,"TEXCOORD_0":1},"mode":4,"indices":2,"material":0}]},{"primitives":[{"attributes":{"POSITION":3,"TEXCOORD_0":4},"mode":4,"indices":5,"material":1}]},{"primitives":[{"attributes":{"POSITION":6,"TEXCOORD_0":7},"mode":4,"indices":8,"material":2}]},{"primitives":[{"attributes":{"POSITION":9,"TEXCOORD_0":10},"mode":4,"indices":11,"material":3}]},{"primitives":[{"attributes":{"POSITION":12,"TEXCOORD_0":13},"mode":4,"indices":14,"material":4}]},{"primitives":[{"attributes":{"POSITION":15,"TEXCOORD_0":16},"mode":4,"indices":17,"material":5}]},{"primitives":[{"attributes":{"POSITION":18,"TEXCOORD_0":19},"mode":4,"indices":20,"material":6}]},{"primitives":[{"attributes":{"POSITION":21,"TEXCOORD_0":22},"mode":4,"indices":23,"material":7}]},{"primitives":[{"attributes":{"POSITION":24,"TEXCOORD_0":25},"mode":4,"indices":26,"material":8}]}],"materials":[{"pbrMetallicRoughness":{"baseColorFactor":[1,1,1,1],"metallicFactor":1,"roughnessFactor":1,"baseColorTexture":{"index":0,"texCoord":0},"metallicRoughnessTexture":{"index":1,"texCoord":0}},"alphaMode":"OPAQUE"},{"pbrMetallicRoughness":{"baseColorFactor":[1,1,1,1],"metallicFactor":1,"roughnessFactor":1,"baseColorTexture":{"index":2,"texCoord":0}},"alphaMode":"OPAQUE"},{"pbrMetallicRoughness":{"baseColorFactor":[1,1,1,1],"metallicFactor":1,"roughnessFactor":1,"baseColorTexture":{"index":3,"texCoord":0},"metallicRoughnessTexture":{"index":4,"texCoord":0}},"alphaMode":"OPAQUE"},{"pbrMetallicRoughness":{"baseColorFactor":[1,1,1,1],"metallicFactor":1,"roughnessFactor":1,"baseColorTexture":{"index":5,"texCoord":0}},"alphaMode":"OPAQUE"},{"pbrMetallicRoughness":{"baseColorFactor":[1,1,1,1],"metallicFactor":1,"roughnessFactor":1,"baseColorTexture":{"index":6,"texCoord":0}},"alphaMode":"OPAQUE"},{"pbrMetallicRoughness":{"baseColorFactor":[1,1,1,1],"metallicFactor":1,"roughnessFactor":1,"baseColorTexture":{"index":7,"texCoord":0}},"alphaMode":"OPAQUE"},{"pbrMetallicRoughness":{"baseColorFactor":[1,1,1,1],"metallicFactor":1,"roughnessFactor":1,"baseColorTexture":{"index":8,"texCoord":0}},"alphaMode":"OPAQUE"},{"pbrMetallicRoughness":{"baseColorFactor":[1,1,1,1],"metallicFactor":1,"roughnessFactor":1,"baseColorTexture":{"index":9,"texCoord":0}},"alphaMode":"OPAQUE"},{"pbrMetallicRoughness":{"baseColorFactor":[1,1,1,1],"metallicFactor":1,"roughnessFactor":1,"baseColorTexture":{"index":10,"texCoord":0}},"alphaMode":"OPAQUE"}],"textures":[{"source":0,"sampler":0},{"source":1,"sampler":0},{"source":2,"sampler":0},{"source":3,"sampler":0},{"source":4,"sampler":0},{"source":5,"sampler":0},{"source":6,"sampler":0},{"source":7,"sampler":0},{"source":8,"sampler":0},{"source":9,"sampler":0},{"source":10,"sampler":0}],"images":[{"uri":"3789511077_4096x2048_373769621576435952.png"},{"uri":"3006624205_2048x1024_10351822693837421737.png"},{"uri":"350794095_4096x2048_289822542939225602.png"},{"uri":"129774418_4096x2048_17026833529806663332.png"},{"uri":"3641854842_2048x1024_17618312742380616759.png"},{"uri":"2297876625_4096x2048_772612729739530539.png"},{"uri":"3771196577_4096x2048_4334245128353841211.png"},{"uri":"1982804928_4096x2048_11737175478117269017.png"},{"uri":"3503132809_4096x2048_6624663951806872279.png"},{"uri":"2478905117_4096x2048_3786191160703140632.png"},{"uri":"3137085458_1024x512_10273184445088621003.png"}],"samplers":[{"magFilter":9729,"wrapS":10497,"wrapT":10497}],"accessors":[{"bufferView":0,"byteOffset":0,"count":10199,"componentType":5126,"type":"VEC3","min":[-0.099999956786632538,-0.099999979138374329,-0.099999986588954926],"max":[0.099999994039535522,0.099999941885471344,0.099999986588954926]},{"bufferView":1,"byteOffset":0,"count":10199,"componentType":5126,"type":"VEC2"},{"bufferView":2,"byteOffset":0,"count":59400,"componentType":5125,"type":"SCALAR"},{"bufferView":3,"byteOffset":0,"count":10199,"componentType":5126,"type":"VEC3","min":[-0.099999956786632538,-0.099999979138374329,-0.099999986588954926],"max":[0.099999994039535522,0.099999941885471344,0.099999986588954926]},{"bufferView":4,"byteOffset":0,"count":10199,"componentType":5126,"type":"VEC2"},{"bufferView":5,"byteOffset":0,"count":59400,"componentType":5125,"type":"SCALAR"},{"bufferView":6,"byteOffset":0,"count":10199,"componentType":5126,"type":"VEC3","min":[-0.099999956786632538,-0.099999979138374329,-0.099999986588954926],"max":[0.099999994039535522,0.099999941885471344,0.099999986588954926]},{"bufferView":7,"byteOffset":0,"count":10199,"componentType":5126,"type":"VEC2"},{"bufferView":8,"byteOffset":0,"count":59400,"componentType":5125,"type":"SCALAR"},{"bufferView":9,"byteOffset":0,"count":10199,"componentType":5126,"type":"VEC3","min":[-0.099999956786632538,-0.099999979138374329,-0.099999986588954926],"max":[0.099999994039535522,0.099999941885471344,0.099999986588954926]},{"bufferView":10,"byteOffset":0,"count":10199,"componentType":5126,"type":"VEC2"},{"bufferView":11,"byteOffset":0,"count":59400,"componentType":5125,"type":"SCALAR"},{"bufferView":12,"byteOffset":0,"count":10199,"componentType":5126,"type":"VEC3","min":[-0.099999956786632538,-0.099999979138374329,-0.099999986588954926],"max":[0.099999994039535522,0.099999941885471344,0.099999986588954926]},{"bufferView":13,"byteOffset":0,"count":10199,"componentType":5126,"type":"VEC2"},{"bufferView":14,"byteOffset":0,"count":59400,"componentType":5125,"type":"SCALAR"},{"bufferView":15,"byteOffset":0,"count":10199,"componentType":5126,"type":"VEC3","min":[-0.099999956786632538,-0.099999979138374329,-0.099999986588954926],"max":[0.099999994039535522,0.099999941885471344,0.099999986588954926]},{"bufferView":16,"byteOffset":0,"count":10199,"componentType":5126,"type":"VEC2"},{"bufferView":17,"byteOffset":0,"count":59400,"componentType":5125,"type":"SCALAR"},{"bufferView":18,"byteOffset":0,"count":10199,"componentType":5126,"type":"VEC3","min":[-0.099999986588954926,-0.099999979138374329,-0.099999941885471344],"max":[0.099999986588954926,0.099999941885471344,0.099999979138374329]},{"bufferView":19,"byteOffset":0,"count":10199,"componentType":5126,"type":"VEC2"},{"bufferView":20,"byteOffset":0,"count":59400,"componentType":5125,"type":"SCALAR"},{"bufferView":21,"byteOffset":0,"count":10199,"componentType":5126,"type":"VEC3","min":[-0.099999956786632538,-0.099999979138374329,-0.099999986588954926],"max":[0.099999994039535522,0.099999941885471344,0.099999986588954926]},{"bufferView":22,"byteOffset":0,"count":10199,"componentType":5126,"type":"VEC2"},{"bufferView":23,"byteOffset":0,"count":59400,"componentType":5125,"type":"SCALAR"},{"bufferView":24,"byteOffset":0,"count":10199,"componentType":5126,"type":"VEC3","min":[-0.099999956786632538,-0.099999979138374329,-0.099999986588954926],"max":[0.099999994039535522,0.099999941885471344,0.099999986588954926]},{"bufferView":25,"byteOffset":0,"count":10199,"componentType":5126,"type":"VEC2"},{"bufferView":26,"byteOffset":0,"count":59400,"componentType":5125,"type":"SCALAR"}],"bufferViews":[{"buffer":0,"byteOffset":0,"byteLength":122388,"byteStride":12,"target":34962},{"buffer":0,"byteOffset":122388,"byteLength":81592,"byteStride":8,"target":34962},{"buffer":0,"byteOffset":203980,"byteLength":237600,"target":34963},{"buffer":0,"byteOffset":441580,"byteLength":122388,"byteStride":12,"target":34962},{"buffer":0,"byteOffset":563968,"byteLength":81592,"byteStride":8,"target":34962},{"buffer":0,"byteOffset":645560,"byteLength":237600,"target":34963},{"buffer":0,"byteOffset":883160,"byteLength":122388,"byteStride":12,"target":34962},{"buffer":0,"byteOffset":1005548,"byteLength":81592,"byteStride":8,"target":34962},{"buffer":0,"byteOffset":1087140,"byteLength":237600,"target":34963},{"buffer":0,"byteOffset":1324740,"byteLength":122388,"byteStride":12,"target":34962},{"buffer":0,"byteOffset":1447128,"byteLength":81592,"byteStride":8,"target":34962},{"buffer":0,"byteOffset":1528720,"byteLength":237600,"target":34963},{"buffer":0,"byteOffset":1766320,"byteLength":122388,"byteStride":12,"target":34962},{"buffer":0,"byteOffset":1888708,"byteLength":81592,"byteStride":8,"target":34962},{"buffer":0,"byteOffset":1970300,"byteLength":237600,"target":34963},{"buffer":0,"byteOffset":2207900,"byteLength":122388,"byteStride":12,"target":34962},{"buffer":0,"byteOffset":2330288,"byteLength":81592,"byteStride":8,"target":34962},{"buffer":0,"byteOffset":2411880,"byteLength":237600,"target":34963},{"buffer":0,"byteOffset":2649480,"byteLength":122388,"byteStride":12,"target":34962},{"buffer":0,"byteOffset":2771868,"byteLength":81592,"byteStride":8,"target":34962},{"buffer":0,"byteOffset":2853460,"byteLength":237600,"target":34963},{"buffer":0,"byteOffset":3091060,"byteLength":122388,"byteStride":12,"target":34962},{"buffer":0,"byteOffset":3213448,"byteLength":81592,"byteStride":8,"target":34962},{"buffer":0,"byteOffset":3295040,"byteLength":237600,"target":34963},{"buffer":0,"byteOffset":3532640,"byteLength":122388,"byteStride":12,"target":34962},{"buffer":0,"byteOffset":3655028,"byteLength":81592,"byteStride":8,"target":34962},{"buffer":0,"byteOffset":3736620,"byteLength":237600,"target":34963}],"buffers":[{"byteLength":3974220,"uri":"ss.bin"}]}