{"asset":{"generator":"3D Builder","version":"2.0"},"scene":0,"scenes":[{"nodes":[0,12]}],"nodes":[{"children":[1,2,3,4,5,6,7,8,9,10,11]},{"mesh":0,"matrix":[39.370079040527344,0,0,0,0,-4.6932791519793682E-6,-39.370075225830078,0,0,39.370075225830078,-4.6932791519793682E-6,0,0.004250240046530962,0.0027960014995187521,-0.20380353927612305,1]},{"mesh":1,"matrix":[39.370079040527344,0,0,0,0,-4.6932791519793682E-6,-39.370075225830078,0,0,39.370075225830078,-4.6932791519793682E-6,0,0.004250240046530962,0.0027960014995187521,-0.20380353927612305,1]},{"mesh":2,"matrix":[39.370079040527344,0,0,0,0,-4.6932791519793682E-6,-39.370075225830078,0,0,39.370075225830078,-4.6932791519793682E-6,0,0.004250240046530962,0.0027960014995187521,-0.20380353927612305,1]},{"mesh":3,"matrix":[39.370079040527344,0,0,0,0,-4.6932791519793682E-6,-39.370075225830078,0,0,39.370075225830078,-4.6932791519793682E-6,0,0.004250240046530962,0.0027960014995187521,-0.20380353927612305,1]},{"mesh":4,"matrix":[39.370079040527344,0,0,0,0,-4.6932791519793682E-6,-39.370075225830078,0,0,39.370075225830078,-4.6932791519793682E-6,0,0.004250240046530962,0.0027960014995187521,-0.20380353927612305,1]},{"mesh":5,"matrix":[39.370079040527344,0,0,0,0,-4.6932791519793682E-6,-39.370075225830078,0,0,39.370075225830078,-4.6932791519793682E-6,0,0.004250240046530962,0.0027960014995187521,-0.20380353927612305,1]},{"mesh":6,"matrix":[39.370079040527344,0,0,0,0,-4.6932791519793682E-6,-39.370075225830078,0,0,39.370075225830078,-4.6932791519793682E-6,0,0.004250240046530962,0.0027960014995187521,-0.20380353927612305,1]},{"mesh":7,"matrix":[39.370079040527344,0,0,0,0,-4.6932791519793682E-6,-39.370075225830078,0,0,39.370075225830078,-4.6932791519793682E-6,0,0.004250240046530962,0.0027960014995187521,-0.20380353927612305,1]},{"mesh":8,"matrix":[39.370079040527344,0,0,0,0,-4.6932791519793682E-6,-39.370075225830078,0,0,39.370075225830078,-4.6932791519793682E-6,0,0.004250240046530962,0.0027960014995187521,-0.20380353927612305,1]},{"mesh":9,"matrix":[39.370079040527344,0,0,0,0,-4.6932791519793682E-6,-39.370075225830078,0,0,39.370075225830078,-4.6932791519793682E-6,0,0.004250240046530962,0.0027960014995187521,-0.20380353927612305,1]},{"mesh":10,"matrix":[39.370079040527344,0,0,0,0,-4.6932791519793682E-6,-39.370075225830078,0,0,39.370075225830078,-4.6932791519793682E-6,0,0.004250240046530962,0.0027960014995187521,-0.20380353927612305,1]},{"children":[13,14,15,16,17,18,19,20,21,22,23,24]},{"mesh":11,"matrix":[39.370079040527344,0,0,0,0,-4.6932791519793682E-6,-39.370075225830078,0,0,39.370075225830078,-4.6932791519793682E-6,0,-0.0019745645113289356,0.096279717981815338,-0.25600090622901917,1]},{"mesh":12,"matrix":[39.370079040527344,0,0,0,0,-4.6932791519793682E-6,-39.370075225830078,0,0,39.370075225830078,-4.6932791519793682E-6,0,-0.0019745645113289356,0.096279717981815338,-0.25600090622901917,1]},{"mesh":13,"matrix":[39.370079040527344,0,0,0,0,-4.6932791519793682E-6,-39.370075225830078,0,0,39.370075225830078,-4.6932791519793682E-6,0,-0.0019745645113289356,0.096279717981815338,-0.25600090622901917,1]},{"mesh":14,"matrix":[39.370079040527344,0,0,0,0,-4.6932791519793682E-6,-39.370075225830078,0,0,39.370075225830078,-4.6932791519793682E-6,0,-0.0019745645113289356,0.096279717981815338,-0.25600090622901917,1]},{"mesh":15,"matrix":[39.370079040527344,0,0,0,0,-4.6932791519793682E-6,-39.370075225830078,0,0,39.370075225830078,-4.6932791519793682E-6,0,-0.0019745645113289356,0.096279717981815338,-0.25600090622901917,1]},{"mesh":16,"matrix":[39.370079040527344,0,0,0,0,-4.6932791519793682E-6,-39.370075225830078,0,0,39.370075225830078,-4.6932791519793682E-6,0,-0.0019745645113289356,0.096279717981815338,-0.25600090622901917,1]},{"mesh":17,"matrix":[39.370079040527344,0,0,0,0,-4.6932791519793682E-6,-39.370075225830078,0,0,39.370075225830078,-4.6932791519793682E-6,0,-0.0019745645113289356,0.096279717981815338,-0.25600090622901917,1]},{"mesh":18,"matrix":[39.370079040527344,0,0,0,0,-4.6932791519793682E-6,-39.370075225830078,0,0,39.370075225830078,-4.6932791519793682E-6,0,-0.0019745645113289356,0.096279717981815338,-0.25600090622901917,1]},{"mesh":19,"matrix":[39.370079040527344,0,0,0,0,-4.6932791519793682E-6,-39.370075225830078,0,0,39.370075225830078,-4.6932791519793682E-6,0,-0.0019745645113289356,0.096279717981815338,-0.25600090622901917,1]},{"mesh":20,"matrix":[39.370079040527344,0,0,0,0,-4.6932791519793682E-6,-39.370075225830078,0,0,39.370075225830078,-4.6932791519793682E-6,0,-0.0019745645113289356,0.096279717981815338,-0.25600090622901917,1]},{"mesh":21,"matrix":[39.370079040527344,0,0,0,0,-4.6932791519793682E-6,-39.370075225830078,0,0,39.370075225830078,-4.6932791519793682E-6,0,-0.0019745645113289356,0.096279717981815338,-0.25600090622901917,1]},{"mesh":22,"matrix":[39.370079040527344,0,0,0,0,-4.6932791519793682E-6,-39.370075225830078,0,0,39.370075225830078,-4.6932791519793682E-6,0,-0.0019745645113289356,0.096279717981815338,-0.25600090622901917,1]}],"meshes":[{"primitives":[{"attributes":{"POSITION":0,"TEXCOORD_0":1},"mode":4,"indices":2,"material":0}]},{"primitives":[{"attributes":{"POSITION":3,"TEXCOORD_0":4},"mode":4,"indices":5,"material":0}]},{"primitives":[{"attributes":{"POSITION":6,"TEXCOORD_0":7},"mode":4,"indices":8,"material":0}]},{"primitives":[{"attributes":{"POSITION":9,"TEXCOORD_0":10},"mode":4,"indices":11,"material":0}]},{"primitives":[{"attributes":{"POSITION":12,"TEXCOORD_0":13},"mode":4,"indices":14,"material":0}]},{"primitives":[{"attributes":{"POSITION":15,"TEXCOORD_0":16},"mode":4,"indices":17,"material":0}]},{"primitives":[{"attributes":{"POSITION":18,"TEXCOORD_0":19},"mode":4,"indices":20,"material":0}]},{"primitives":[{"attributes":{"POSITION":21,"TEXCOORD_0":22},"mode":4,"indices":23,"material":0}]},{"primitives":[{"attributes":{"POSITION":24,"TEXCOORD_0":25},"mode":4,"indices":26,"material":0}]},{"primitives":[{"attributes":{"POSITION":27,"TEXCOORD_0":28},"mode":4,"indices":29,"material":0}]},{"primitives":[{"attributes":{"POSITION":30,"TEXCOORD_0":31},"mode":4,"indices":32,"material":0}]},{"primitives":[{"attributes":{"POSITION":33,"TEXCOORD_0":34},"mode":4,"indices":35,"material":1}]},{"primitives":[{"attributes":{"POSITION":36,"TEXCOORD_0":37},"mode":4,"indices":38,"material":1}]},{"primitives":[{"attributes":{"POSITION":39,"TEXCOORD_0":40},"mode":4,"indices":41,"material":1}]},{"primitives":[{"attributes":{"POSITION":42,"TEXCOORD_0":43},"mode":4,"indices":44,"material":1}]},{"primitives":[{"attributes":{"POSITION":45,"TEXCOORD_0":46},"mode":4,"indices":47,"material":1}]},{"primitives":[{"attributes":{"POSITION":48,"TEXCOORD_0":49},"mode":4,"indices":50,"material":1}]},{"primitives":[{"attributes":{"POSITION":51,"TEXCOORD_0":52},"mode":4,"indices":53,"material":1}]},{"primitives":[{"attributes":{"POSITION":54,"TEXCOORD_0":55},"mode":4,"indices":56,"material":1}]},{"primitives":[{"attributes":{"POSITION":57,"TEXCOORD_0":58},"mode":4,"indices":59,"material":1}]},{"primitives":[{"attributes":{"POSITION":60,"TEXCOORD_0":61},"mode":4,"indices":62,"material":1}]},{"primitives":[{"attributes":{"POSITION":63,"TEXCOORD_0":64},"mode":4,"indices":65,"material":1}]},{"primitives":[{"attributes":{"POSITION":66,"TEXCOORD_0":67},"mode":4,"indices":68,"material":1}]}],"materials":[{"pbrMetallicRoughness":{"baseColorFactor":[1,1,1,1],"metallicFactor":1,"roughnessFactor":1,"baseColorTexture":{"index":0,"texCoord":0},"metallicRoughnessTexture":{"index":1,"texCoord":0}},"alphaMode":"OPAQUE"},{"pbrMetallicRoughness":{"baseColorFactor":[1,1,1,1],"metallicFactor":1,"roughnessFactor":1,"baseColorTexture":{"index":2,"texCoord":0},"metallicRoughnessTexture":{"index":3,"texCoord":0}},"alphaMode":"OPAQUE"}],"textures":[{"source":0,"sampler":0},{"source":1,"sampler":0},{"source":2,"sampler":0},{"source":3,"sampler":0}],"images":[{"uri":"texture_0_6195987693227547908.png"},{"uri":"texture_1_17319628118832143767.png"},{"uri":"texture_4_11563080508590297124.png"},{"uri":"texture_5_12154559721164250551.png"}],"samplers":[{"magFilter":9729,"wrapS":10497,"wrapT":10497}],"accessors":[{"bufferView":0,"byteOffset":0,"count":7699,"componentType":5126,"type":"VEC3","min":[-0.001351345214061439,-0.0089813508093357086,-0.00060977012617513537],"max":[0.0018659429624676704,-0.0040656263008713722,0.00063818454509601]},{"bufferView":1,"byteOffset":0,"count":7699,"componentType":5126,"type":"VEC2"},{"bufferView":2,"byteOffset":0,"count":29424,"componentType":5125,"type":"SCALAR"},{"bufferView":3,"byteOffset":0,"count":1277,"componentType":5126,"type":"VEC3","min":[-0.0012630752753466368,-0.0070454985834658146,-0.0021407974418252707],"max":[-0.00076084962347522378,-0.006540229544043541,-0.00068282103165984154]},{"bufferView":4,"byteOffset":0,"count":1277,"componentType":5126,"type":"VEC2"},{"bufferView":5,"byteOffset":0,"count":5094,"componentType":5125,"type":"SCALAR"},{"bufferView":6,"byteOffset":0,"count":477,"componentType":5126,"type":"VEC3","min":[-0.00081259402213618159,-0.0070911557413637638,-0.0012641854118555784],"max":[-7.2952527261804789E-5,-0.0063515137881040573,-0.00055802561109885573]},{"bufferView":7,"byteOffset":0,"count":477,"componentType":5126,"type":"VEC2"},{"bufferView":8,"byteOffset":0,"count":1548,"componentType":5125,"type":"SCALAR"},{"bufferView":9,"byteOffset":0,"count":3115,"componentType":5126,"type":"VEC3","min":[-0.00059952866286039352,-0.0041478089988231659,-0.0014985573943704367],"max":[0.00037448489456437528,-0.0013718707486987114,0.0019987595733255148]},{"bufferView":10,"byteOffset":0,"count":3115,"componentType":5126,"type":"VEC2"},{"bufferView":11,"byteOffset":0,"count":11850,"componentType":5125,"type":"SCALAR"},{"bufferView":12,"byteOffset":0,"count":155,"componentType":5126,"type":"VEC3","min":[-0.0011078419629484415,-0.006917659193277359,-0.00055193813750520349],"max":[0.00036535345134325325,-0.00576406205072999,-0.000262777874013409]},{"bufferView":13,"byteOffset":0,"count":155,"componentType":5126,"type":"VEC2"},{"bufferView":14,"byteOffset":0,"count":372,"componentType":5125,"type":"SCALAR"},{"bufferView":15,"byteOffset":0,"count":324,"componentType":5126,"type":"VEC3","min":[0.0019785629119724035,-0.0063789081759750843,0.00053469568956643343],"max":[0.0025355771649628878,-0.00332902860827744,0.00053773948457092047]},{"bufferView":16,"byteOffset":0,"count":324,"componentType":5126,"type":"VEC2"},{"bufferView":17,"byteOffset":0,"count":960,"componentType":5125,"type":"SCALAR"},{"bufferView":18,"byteOffset":0,"count":324,"componentType":5126,"type":"VEC3","min":[0.0012754470808431506,-0.0063789081759750843,0.00053469568956643343],"max":[0.0018324609845876694,-0.00332902860827744,0.00053773948457092047]},{"bufferView":19,"byteOffset":0,"count":324,"componentType":5126,"type":"VEC2"},{"bufferView":20,"byteOffset":0,"count":960,"componentType":5125,"type":"SCALAR"},{"bufferView":21,"byteOffset":0,"count":324,"componentType":5126,"type":"VEC3","min":[0.00056624371791258454,-0.0063789081759750843,0.00053469568956643343],"max":[0.0011263014748692513,-0.00332902860827744,0.00053773948457092047]},{"bufferView":22,"byteOffset":0,"count":324,"componentType":5126,"type":"VEC2"},{"bufferView":23,"byteOffset":0,"count":960,"componentType":5125,"type":"SCALAR"},{"bufferView":24,"byteOffset":0,"count":324,"componentType":5126,"type":"VEC3","min":[-0.0027514896355569363,-0.0063789081759750843,0.00053469568956643343],"max":[-0.0021944756153970957,-0.00332902860827744,0.00053773948457092047]},{"bufferView":25,"byteOffset":0,"count":324,"componentType":5126,"type":"VEC2"},{"bufferView":26,"byteOffset":0,"count":960,"componentType":5125,"type":"SCALAR"},{"bufferView":27,"byteOffset":0,"count":324,"componentType":5126,"type":"VEC3","min":[-0.0020453296601772308,-0.0063789081759750843,0.00053469568956643343],"max":[-0.0014883158728480339,-0.00332902860827744,0.00053773948457092047]},{"bufferView":28,"byteOffset":0,"count":324,"componentType":5126,"type":"VEC2"},{"bufferView":29,"byteOffset":0,"count":960,"componentType":5125,"type":"SCALAR"},{"bufferView":30,"byteOffset":0,"count":324,"componentType":5126,"type":"VEC3","min":[-0.0013422138290479779,-0.0063789081759750843,0.00053469568956643343],"max":[-0.00078519992530345917,-0.00332902860827744,0.00053773948457092047]},{"bufferView":31,"byteOffset":0,"count":324,"componentType":5126,"type":"VEC2"},{"bufferView":32,"byteOffset":0,"count":960,"componentType":5125,"type":"SCALAR"},{"bufferView":33,"byteOffset":0,"count":1928,"componentType":5126,"type":"VEC3","min":[-0.00031918284366838634,-0.0063279322348535061,6.702121754642576E-5],"max":[0.00015419207920785993,-0.0057037016376852989,0.0010709918569773436]},{"bufferView":34,"byteOffset":0,"count":1928,"componentType":5126,"type":"VEC2"},{"bufferView":35,"byteOffset":0,"count":3786,"componentType":5125,"type":"SCALAR"},{"bufferView":36,"byteOffset":0,"count":21789,"componentType":5126,"type":"VEC3","min":[-0.0064522456377744675,-0.012200899422168732,-0.0012802759883925319],"max":[0.0065473513677716255,-0.00080869579687714577,0.0011542224092409015]},{"bufferView":37,"byteOffset":0,"count":21789,"componentType":5126,"type":"VEC2"},{"bufferView":38,"byteOffset":0,"count":46806,"componentType":5125,"type":"SCALAR"},{"bufferView":39,"byteOffset":0,"count":24,"componentType":5126,"type":"VEC3","min":[-0.00035039384965784848,-0.0051262890920042992,0.00013464612129610032],"max":[-9.550046524964273E-5,-0.0041067125275731087,0.00035832886351272464]},{"bufferView":40,"byteOffset":0,"count":24,"componentType":5126,"type":"VEC2"},{"bufferView":41,"byteOffset":0,"count":36,"componentType":5125,"type":"SCALAR"},{"bufferView":42,"byteOffset":0,"count":2286,"componentType":5126,"type":"VEC3","min":[0.0015014889650046825,-0.008876873180270195,-0.00046877644490450621],"max":[0.0028487867675721645,-0.0080861812457442284,0.00038954024785198271]},{"bufferView":43,"byteOffset":0,"count":2286,"componentType":5126,"type":"VEC2"},{"bufferView":44,"byteOffset":0,"count":5640,"componentType":5125,"type":"SCALAR"},{"bufferView":45,"byteOffset":0,"count":258,"componentType":5126,"type":"VEC3","min":[-0.0056095346808433533,-0.0065932292491197586,-0.0012802759883925319],"max":[-0.00505813118070364,-0.0064267683774232864,0.00055079988669604063]},{"bufferView":46,"byteOffset":0,"count":258,"componentType":5126,"type":"VEC2"},{"bufferView":47,"byteOffset":0,"count":498,"componentType":5125,"type":"SCALAR"},{"bufferView":48,"byteOffset":0,"count":80,"componentType":5126,"type":"VEC3","min":[0.0051012183539569378,-0.012133274227380753,0.00032191514037549496],"max":[0.00568383326753974,-0.0070301908999681473,0.00033752102172002196]},{"bufferView":49,"byteOffset":0,"count":80,"componentType":5126,"type":"VEC2"},{"bufferView":50,"byteOffset":0,"count":108,"componentType":5125,"type":"SCALAR"},{"bufferView":51,"byteOffset":0,"count":80,"componentType":5126,"type":"VEC3","min":[0.0032493346370756626,-0.012133274227380753,0.00032191514037549496],"max":[0.0038319495506584644,-0.0070301908999681473,0.00033752102172002196]},{"bufferView":52,"byteOffset":0,"count":80,"componentType":5126,"type":"VEC2"},{"bufferView":53,"byteOffset":0,"count":108,"componentType":5125,"type":"SCALAR"},{"bufferView":54,"byteOffset":0,"count":80,"componentType":5126,"type":"VEC3","min":[-0.0064470437355339527,-0.012133274227380753,0.00032191514037549496],"max":[-0.0058644288219511509,-0.0070301908999681473,0.00033752102172002196]},{"bufferView":55,"byteOffset":0,"count":80,"componentType":5126,"type":"VEC2"},{"bufferView":56,"byteOffset":0,"count":108,"componentType":5125,"type":"SCALAR"},{"bufferView":57,"byteOffset":0,"count":78,"componentType":5126,"type":"VEC3","min":[-0.0047564199194312096,-0.012133274227380753,0.00032191514037549496],"max":[-0.0041738050058484077,-0.0070301908999681473,0.00033752102172002196]},{"bufferView":58,"byteOffset":0,"count":78,"componentType":5126,"type":"VEC2"},{"bufferView":59,"byteOffset":0,"count":108,"componentType":5125,"type":"SCALAR"},{"bufferView":60,"byteOffset":0,"count":70,"componentType":5126,"type":"VEC3","min":[-0.0055887275375425816,-0.0059794029220938683,0.00032191514037549496],"max":[-0.0050061121582984924,-0.00087632052600383759,0.00033752102172002196]},{"bufferView":61,"byteOffset":0,"count":70,"componentType":5126,"type":"VEC2"},{"bufferView":62,"byteOffset":0,"count":108,"componentType":5125,"type":"SCALAR"},{"bufferView":63,"byteOffset":0,"count":79,"componentType":5126,"type":"VEC3","min":[0.0041076517663896084,-0.0059794029220938683,0.00043115572771057487],"max":[0.0046954681165516376,-0.00087632052600383759,0.00044155947398394346]},{"bufferView":64,"byteOffset":0,"count":79,"componentType":5126,"type":"VEC2"},{"bufferView":65,"byteOffset":0,"count":108,"componentType":5125,"type":"SCALAR"},{"bufferView":66,"byteOffset":0,"count":80,"componentType":5126,"type":"VEC3","min":[0.0059595350176095963,-0.0059794029220938683,0.00043115572771057487],"max":[0.0065473513677716255,-0.00087632052600383759,0.00044155947398394346]},{"bufferView":67,"byteOffset":0,"count":80,"componentType":5126,"type":"VEC2"},{"bufferView":68,"byteOffset":0,"count":108,"componentType":5125,"type":"SCALAR"}],"bufferViews":[{"buffer":0,"byteOffset":0,"byteLength":92388,"byteStride":12,"target":34962},{"buffer":0,"byteOffset":92388,"byteLength":61592,"byteStride":8,"target":34962},{"buffer":0,"byteOffset":153980,"byteLength":117696,"target":34963},{"buffer":0,"byteOffset":271676,"byteLength":15324,"byteStride":12,"target":34962},{"buffer":0,"byteOffset":287000,"byteLength":10216,"byteStride":8,"target":34962},{"buffer":0,"byteOffset":297216,"byteLength":20376,"target":34963},{"buffer":0,"byteOffset":317592,"byteLength":5724,"byteStride":12,"target":34962},{"buffer":0,"byteOffset":323316,"byteLength":3816,"byteStride":8,"target":34962},{"buffer":0,"byteOffset":327132,"byteLength":6192,"target":34963},{"buffer":0,"byteOffset":333324,"byteLength":37380,"byteStride":12,"target":34962},{"buffer":0,"byteOffset":370704,"byteLength":24920,"byteStride":8,"target":34962},{"buffer":0,"byteOffset":395624,"byteLength":47400,"target":34963},{"buffer":0,"byteOffset":443024,"byteLength":1860,"byteStride":12,"target":34962},{"buffer":0,"byteOffset":444884,"byteLength":1240,"byteStride":8,"target":34962},{"buffer":0,"byteOffset":446124,"byteLength":1488,"target":34963},{"buffer":0,"byteOffset":447612,"byteLength":3888,"byteStride":12,"target":34962},{"buffer":0,"byteOffset":451500,"byteLength":2592,"byteStride":8,"target":34962},{"buffer":0,"byteOffset":454092,"byteLength":3840,"target":34963},{"buffer":0,"byteOffset":457932,"byteLength":3888,"byteStride":12,"target":34962},{"buffer":0,"byteOffset":461820,"byteLength":2592,"byteStride":8,"target":34962},{"buffer":0,"byteOffset":464412,"byteLength":3840,"target":34963},{"buffer":0,"byteOffset":468252,"byteLength":3888,"byteStride":12,"target":34962},{"buffer":0,"byteOffset":472140,"byteLength":2592,"byteStride":8,"target":34962},{"buffer":0,"byteOffset":474732,"byteLength":3840,"target":34963},{"buffer":0,"byteOffset":478572,"byteLength":3888,"byteStride":12,"target":34962},{"buffer":0,"byteOffset":482460,"byteLength":2592,"byteStride":8,"target":34962},{"buffer":0,"byteOffset":485052,"byteLength":3840,"target":34963},{"buffer":0,"byteOffset":488892,"byteLength":3888,"byteStride":12,"target":34962},{"buffer":0,"byteOffset":492780,"byteLength":2592,"byteStride":8,"target":34962},{"buffer":0,"byteOffset":495372,"byteLength":3840,"target":34963},{"buffer":0,"byteOffset":499212,"byteLength":3888,"byteStride":12,"target":34962},{"buffer":0,"byteOffset":503100,"byteLength":2592,"byteStride":8,"target":34962},{"buffer":0,"byteOffset":505692,"byteLength":3840,"target":34963},{"buffer":0,"byteOffset":509532,"byteLength":23136,"byteStride":12,"target":34962},{"buffer":0,"byteOffset":532668,"byteLength":15424,"byteStride":8,"target":34962},{"buffer":0,"byteOffset":548092,"byteLength":15144,"target":34963},{"buffer":0,"byteOffset":563236,"byteLength":261468,"byteStride":12,"target":34962},{"buffer":0,"byteOffset":824704,"byteLength":174312,"byteStride":8,"target":34962},{"buffer":0,"byteOffset":999016,"byteLength":187224,"target":34963},{"buffer":0,"byteOffset":1186240,"byteLength":288,"byteStride":12,"target":34962},{"buffer":0,"byteOffset":1186528,"byteLength":192,"byteStride":8,"target":34962},{"buffer":0,"byteOffset":1186720,"byteLength":144,"target":34963},{"buffer":0,"byteOffset":1186864,"byteLength":27432,"byteStride":12,"target":34962},{"buffer":0,"byteOffset":1214296,"byteLength":18288,"byteStride":8,"target":34962},{"buffer":0,"byteOffset":1232584,"byteLength":22560,"target":34963},{"buffer":0,"byteOffset":1255144,"byteLength":3096,"byteStride":12,"target":34962},{"buffer":0,"byteOffset":1258240,"byteLength":2064,"byteStride":8,"target":34962},{"buffer":0,"byteOffset":1260304,"byteLength":1992,"target":34963},{"buffer":0,"byteOffset":1262296,"byteLength":960,"byteStride":12,"target":34962},{"buffer":0,"byteOffset":1263256,"byteLength":640,"byteStride":8,"target":34962},{"buffer":0,"byteOffset":1263896,"byteLength":432,"target":34963},{"buffer":0,"byteOffset":1264328,"byteLength":960,"byteStride":12,"target":34962},{"buffer":0,"byteOffset":1265288,"byteLength":640,"byteStride":8,"target":34962},{"buffer":0,"byteOffset":1265928,"byteLength":432,"target":34963},{"buffer":0,"byteOffset":1266360,"byteLength":960,"byteStride":12,"target":34962},{"buffer":0,"byteOffset":1267320,"byteLength":640,"byteStride":8,"target":34962},{"buffer":0,"byteOffset":1267960,"byteLength":432,"target":34963},{"buffer":0,"byteOffset":1268392,"byteLength":936,"byteStride":12,"target":34962},{"buffer":0,"byteOffset":1269328,"byteLength":624,"byteStride":8,"target":34962},{"buffer":0,"byteOffset":1269952,"byteLength":432,"target":34963},{"buffer":0,"byteOffset":1270384,"byteLength":840,"byteStride":12,"target":34962},{"buffer":0,"byteOffset":1271224,"byteLength":560,"byteStride":8,"target":34962},{"buffer":0,"byteOffset":1271784,"byteLength":432,"target":34963},{"buffer":0,"byteOffset":1272216,"byteLength":948,"byteStride":12,"target":34962},{"buffer":0,"byteOffset":1273164,"byteLength":632,"byteStride":8,"target":34962},{"buffer":0,"byteOffset":1273796,"byteLength":432,"target":34963},{"buffer":0,"byteOffset":1274228,"byteLength":960,"byteStride":12,"target":34962},{"buffer":0,"byteOffset":1275188,"byteLength":640,"byteStride":8,"target":34962},{"buffer":0,"byteOffset":1275828,"byteLength":432,"target":34963}],"buffers":[{"byteLength":1276260,"uri":"vv.bin"}]}