{"asset":{"generator":"3D Builder","version":"2.0"},"scene":0,"scenes":[{"nodes":[0,1]}],"nodes":[{"mesh":0,"matrix":[39.370079040527344,0,0,0,0,-4.6932791519793682E-6,-39.370075225830078,0,0,39.370075225830078,-4.6932791519793682E-6,0,0.074884600937366486,0.00062446703668683767,-0.49257156252861023,1]},{"mesh":1,"matrix":[39.370079040527344,0,0,0,0,-4.6932791519793682E-6,-39.370075225830078,0,0,39.370075225830078,-4.6932791519793682E-6,0,0.074884600937366486,0.00062446703668683767,-0.49257156252861023,1]}],"meshes":[{"primitives":[{"attributes":{"POSITION":0,"TEXCOORD_0":1},"mode":4,"indices":2,"material":0}]},{"primitives":[{"attributes":{"POSITION":3,"TEXCOORD_0":4},"mode":4,"indices":5,"material":0}]}],"materials":[{"pbrMetallicRoughness":{"baseColorFactor":[1,1,1,1],"metallicFactor":1,"roughnessFactor":1,"baseColorTexture":{"index":0,"texCoord":0},"metallicRoughnessTexture":{"index":1,"texCoord":0}},"alphaMode":"OPAQUE"}],"textures":[{"source":0,"sampler":0},{"source":1,"sampler":0}],"images":[{"uri":"texture_0_6195987693227547908.png"},{"uri":"texture_1_17319628118832143767.png"}],"samplers":[{"magFilter":9729,"wrapS":10497,"wrapT":10497}],"accessors":[{"bufferView":0,"byteOffset":0,"count":11453,"componentType":5126,"type":"VEC3","min":[-0.013527538627386093,-0.023060595616698265,-0.004921602550894022],"max":[-0.00053059833589941263,-9.2457412392832339E-6,0.0054925531148910522]},{"bufferView":1,"byteOffset":0,"count":11453,"componentType":5126,"type":"VEC2"},{"bufferView":2,"byteOffset":0,"count":55296,"componentType":5125,"type":"SCALAR"},{"bufferView":3,"byteOffset":0,"count":11456,"componentType":5126,"type":"VEC3","min":[-0.0032735362183302641,-0.025013392791152,-0.0055242786183953285],"max":[0.0097234006971120834,-0.0019620456732809544,0.0048898756504058838]},{"bufferView":4,"byteOffset":0,"count":11456,"componentType":5126,"type":"VEC2"},{"bufferView":5,"byteOffset":0,"count":55392,"componentType":5125,"type":"SCALAR"}],"bufferViews":[{"buffer":0,"byteOffset":0,"byteLength":137436,"byteStride":12,"target":34962},{"buffer":0,"byteOffset":137436,"byteLength":91624,"byteStride":8,"target":34962},{"buffer":0,"byteOffset":229060,"byteLength":221184,"target":34963},{"buffer":0,"byteOffset":450244,"byteLength":137472,"byteStride":12,"target":34962},{"buffer":0,"byteOffset":587716,"byteLength":91648,"byteStride":8,"target":34962},{"buffer":0,"byteOffset":679364,"byteLength":221568,"target":34963}],"buffers":[{"byteLength":900932,"uri":"bbb.bin"}]}